<mxfile host="app.diagrams.net" modified="2023-07-03T03:48:03.840Z" agent="Mozilla/5.0 (Windows NT 10.0; Win64; x64) AppleWebKit/537.36 (KHTML, like Gecko) Chrome/111.0.0.0 Safari/537.36" version="21.4.0" etag="g0hOqfxugJY7yK9KOYRn" type="github">
  <diagram name="第 1 页" id="7VrDMEYh7a97GZ4iysdi">
    <mxGraphModel>
      <root>
        <mxCell id="0" />
        <mxCell id="1" parent="0" />
      </root>
    </mxGraphModel>
  </diagram>
</mxfile>
